<svg width="18" height="18" viewBox="0 0 18 18" fill="none" xmlns="http://www.w3.org/2000/svg">
  <path d="M10.4099 9.00019L16.7099 2.71019C17.1001 2.31986 17.1001 1.68986 16.7099 1.30019C16.3201 0.910189 15.6901 0.910189 15.2999 1.30019L8.99994 7.59019L2.69994 1.30019C2.30994 0.910189 1.67994 0.910189 1.28994 1.30019C0.899939 1.68986 0.899939 2.31986 1.28994 2.71019L7.58994 9.00019L1.28994 15.2902C0.899939 15.6802 0.899939 16.3102 1.28994 16.7002C1.47994 16.8902 1.73994 17.0002 1.99994 17.0002C2.25994 17.0002 2.51994 16.8902 2.70994 16.7002L8.99994 10.4102L15.2999 16.7002C15.4899 16.8902 15.7499 17.0002 16.0099 17.0002C16.2699 17.0002 16.5299 16.8902 16.7199 16.7002C17.1101 16.3102 17.1101 15.6802 16.7199 15.2902L10.4099 9.00019Z" fill="white"/>
</svg>
