<svg width="32" height="32" viewBox="0 0 32 32" fill="none" xmlns="http://www.w3.org/2000/svg">
  <path d="M16 3.2C8.7 3.2 2.8 9.1 2.8 16.4C2.8 22.2 6.4 27.2 11.6 29C12.1 29.1 12.3 28.8 12.3 28.5C12.3 28.2 12.3 27.4 12.3 26.3C8.6 27.1 7.9 24.7 7.9 24.7C7.4 23.2 6.6 22.8 6.6 22.8C5.5 22 6.7 22 6.7 22C7.9 22.1 8.5 23.3 8.5 23.3C9.6 25.2 11.4 24.7 12.3 24.4C12.4 23.6 12.7 23 13.1 22.7C10.1 22.4 7 21.3 7 16.2C7 14.7 7.5 13.4 8.6 12.4C8.4 12.2 8 10.9 8.7 9C8.7 9 9.7 8.7 12.3 10.3C13.5 10 14.8 9.8 16 9.8C17.2 9.8 18.5 10 19.7 10.3C22.3 8.7 23.3 9 23.3 9C24 10.9 23.6 12.2 23.4 12.4C24.4 13.4 24.9 14.6 24.9 16.2C24.9 21.3 21.8 22.3 18.8 22.6C19.3 23 19.7 23.7 19.7 24.8C19.7 26.4 19.7 28.1 19.7 28.5C19.7 28.8 19.9 29.1 20.4 29C25.6 27.2 29.2 22.2 29.2 16.4C29.2 9.1 23.3 3.2 16 3.2Z" fill="white"/>
</svg>
