<svg xmlns="http://www.w3.org/2000/svg" viewBox="0 0 128 128">
  <path fill="#FF6F00" d="M62.6 70.7l-4.1 7.2v.1l4.2 7.2 4.2-7.2-4.3-7.3zm-1.9 16.3l-6-10.4-4.2 7.2 6 10.4 4.2-7.2z"/>
  <path fill="#425066" d="M25.2 44.9l6 10.4 4.2-7.2-6-10.4-4.2 7.2z"/>
  <path fill="#FF6F00" d="M17.1 77c0-5.5 1.8-10.9 5.1-15.2.1-.1.2-.3.3-.4l6.1 10.5-11.4 19.8c-.1-.1-.1-.2-.1-.3-2.1-4.5-3.2-9.4-3.1-14.4z"/>
  <path fill="#425066" d="M66.7.2l-6 10.4 4.2 7.2 6-10.4L66.7.2z"/>
  <path fill="#FF6F00" d="M110.8 77.1c0 5.5-1.8 10.9-5.1 15.2-.1.1-.2.3-.3.4l-6.2-10.5 11.5-19.9c.1.1.1.3.1.4 2.1 4.5 3.2 9.4 3.1 14.4z"/>
  <path fill="#425066" d="M60.7 17.8l-6 10.4 4.2 7.2 6-10.4-4.2-7.2z"/>
  <path fill="#FF6F00" d="M56.5 95.8L50.4 85.4l-12.2 21.1c4.1 2.9 8.9 4.8 13.9 5.5 5 .7 10.1.2 14.9-1.5l6.1-10.5-16.6-4.2zm29.8-29.5h.1l8.4 14.5c1.9-4.3 2.7-9.1 2.4-13.8-.4-4.7-1.9-9.3-4.3-13.4l-16.6 4.3 10 8.4z"/>
  <path fill="#425066" d="M64.9 25L47.7 6.1c-4.2 2.9-7.8 6.7-10.6 11.1-2.7 4.4-4.5 9.3-5.3 14.5L64.9 46V25z"/>
  <path fill="#FF6F00" d="M31.7 31.7c-2.9 4.2-4.8 9-5.5 14-.7 5-.2 10.1 1.5 14.9l16.6-4.2-12.6-24.7z"/>
  <path fill="#E94706" d="M41.7 22.7C36.5 30.9 34 40.9 34.5 51l21.7 8.3-14.5-36.6z"/>
  <path fill="#425066" d="M64.9 46v12.5l21.7-8.3c-1.7-10-7.6-18.9-16.1-24.6L64.9 46z"/>
  <path fill="#FF6F00" d="M94.5 35.3c-2.8-4.4-6.4-8.1-10.5-11.1L67 42.9l27.5-7.6z"/>
  <path fill="#425066" d="M86.2 57.5l-21.3 8.2 8.2 14.2 13.1-22.4z"/>
  <path fill="#FF6F00" d="M43.6 65.7l10.4-18 21.3-8.2c-7.4-5.9-16.8-8.6-26.2-7.7-9.3.9-18 5.5-24.3 13l18.8 20.9z"/>
  <path fill="#E94706" d="M102.4 55.3l-16.2 2.2 15.5 26.8c3.3-9.1 2.8-19.2-1.5-27.9l2.2-1.1z"/>
  <path fill="#C9C9C9" d="M45.8 106.5l4.6-21.1-12.2 21.1h7.6z"/>
  <path fill="#425066" d="M73.1 79.9l-10.4 18-18.9 8.6c7.4 5.9 16.9 8.7 26.3 7.7 9.3-.9 18-5.5 24.3-13l-21.3-21.3z"/>
  <path fill="#E94706" d="M65.1 88l-10.5 18.2c9.3 5.1 20.5 5.2 29.9.3L65.1 88z"/>
</svg>
