<svg width="400" height="400" xmlns="http://www.w3.org/2000/svg">
  <g stroke="#8a7ff8" stroke-width="1" fill="none">
    <!-- Main CPU/Grid -->
    <rect x="150" y="150" width="100" height="100" />
    <rect x="160" y="160" width="80" height="80" />
    
    <!-- Circuit Paths -->
    <path d="M 150 180 L 20 180 L 20 50 L 120 50" />
    <path d="M 150 200 L 40 200 L 40 350 L 200 350" />
    <path d="M 250 180 L 350 180 L 350 100" />
    <path d="M 250 200 L 300 200 L 300 300 L 180 300" />
    
    <!-- Connection Points -->
    <circle cx="20" cy="180" r="3" />
    <circle cx="40" cy="200" r="3" />
    <circle cx="120" cy="50" r="3" />
    <circle cx="200" cy="350" r="3" />
    <circle cx="350" cy="100" r="3" />
    <circle cx="180" cy="300" r="3" />
    
    <!-- Additional Circuit Elements -->
    <rect x="100" y="45" width="40" height="10" />
    <rect x="195" y="345" width="10" height="10" />
    <rect x="345" cy="95" width="10" height="10" />
    
    <!-- Small IC Components -->
    <rect x="60" y="160" width="30" height="30" />
    <rect x="280" y="220" width="20" height="40" />
    
    <!-- Connection Lines -->
    <path d="M 65 160 L 65 120" />
    <path d="M 75 160 L 75 120" />
    <path d="M 85 160 L 85 120" />
    <path d="M 290 220 L 290 150" />
    <path d="M 290 260 L 290 320" />
  </g>
</svg>